<?xml version="1.0" encoding="UTF-8"?>
<svg xmlns="http://www.w3.org/2000/svg" width="1200" height="800" viewBox="0 0 1200 800">
  <defs>
    <linearGradient id="g" x1="0" x2="1" y1="0" y2="1">
      <stop offset="0%" stop-color="#7c5cdb"/>
      <stop offset="100%" stop-color="#4a2fb7"/>
    </linearGradient>
  </defs>
  <rect width="100%" height="100%" fill="url(#g)" rx="24"/>
  <g transform="translate(80,80)">
    <rect x="0" y="0" width="450" height="260" rx="18" fill="rgba(255,255,255,0.06)"/>
    <rect x="90" y="40" width="300" height="40" rx="8" fill="#fff" opacity="0.08"/>
    <rect x="90" y="100" width="220" height="20" rx="6" fill="#fff" opacity="0.06"/>
    <g transform="translate(0,330)">
      <circle cx="380" cy="60" r="80" fill="#fff" opacity="0.06"/>
      <path d="M140 20 L200 140 L80 140 Z" fill="#fff" opacity="0.12" transform="translate(40,0) rotate(12 200 140)"/>
    </g>
  </g>
  <g transform="translate(640,120)">
    <rect x="0" y="0" width="380" height="420" rx="20" fill="#fff" opacity="0.04"/>
    <circle cx="180" cy="120" r="84" fill="#fff" opacity="0.06"/>
    <path d="M60 320 Q180 220 300 320" fill="#fff" opacity="0.03"/>
    <g transform="translate(60,40)">
      <rect x="20" y="20" width="120" height="14" rx="6" fill="#fff" opacity="0.12"/>
      <rect x="20" y="50" width="180" height="10" rx="5" fill="#fff" opacity="0.06"/>
      <rect x="20" y="74" width="90" height="8" rx="4" fill="#fff" opacity="0.05"/>
    </g>
  </g>
  <text x="80" y="720" fill="rgba(255,255,255,0.2)" font-family="sans-serif" font-size="18">Placeholder hero art — replace with your artwork at static/images/hero.jpg or hero.svg</text>
</svg>
